HIERARCHY
ROOT Hip
{
	OFFSET 1.408637 -1.492313 0.122085
	CHANNELS 6 Xposition Yposition Zposition Xrotation Yrotation Zrotation
	JOINT LowerSpine
	{
		OFFSET 0.000000 0.154691 0.259874
		CHANNELS 6 Xposition Yposition Zposition Xrotation Yrotation Zrotation
		JOINT MiddleSpine
		{
			OFFSET -0.000000 -0.011153 0.237154
			CHANNELS 3 Xrotation Yrotation Zrotation
			JOINT Chest
			{
				OFFSET -0.000000 0.058786 0.293449
				CHANNELS 3 Xrotation Yrotation Zrotation
				JOINT Neck
				{
					OFFSET -0.000000 0.012376 0.661279
					CHANNELS 6 Xposition Yposition Zposition Xrotation Yrotation Zrotation
					JOINT Head
					{
						OFFSET -0.000003 -0.101573 0.373433
						CHANNELS 3 Xrotation Yrotation Zrotation
						End Site
						{
							OFFSET 0.000000 -0.001601 0.053629
						}
					}
				}
				JOINT LClavicle
				{
					OFFSET 0.060085 -0.196776 0.638168
					CHANNELS 6 Xposition Yposition Zposition Xrotation Yrotation Zrotation
					JOINT LShoulder
					{
						OFFSET 0.351027 0.148114 0.091535
						CHANNELS 3 Xrotation Yrotation Zrotation
						JOINT LForearm
						{
							OFFSET 0.828501 0.007179 -0.002937
							CHANNELS 3 Xrotation Yrotation Zrotation
							JOINT LHand
							{
								OFFSET 0.691144 0.004141 0.002005
								CHANNELS 3 Xrotation Yrotation Zrotation
								JOINT LFinger1
								{
									OFFSET 0.267868 -0.074399 0.023428
									CHANNELS 6 Xposition Yposition Zposition Xrotation Yrotation Zrotation
									JOINT LFinger11
									{
										OFFSET 0.100196 -0.017654 -0.024432
										CHANNELS 3 Xrotation Yrotation Zrotation
										JOINT LFinger12
										{
											OFFSET 0.068401 -0.012057 -0.016683
											CHANNELS 3 Xrotation Yrotation Zrotation
											End Site
											{
												OFFSET 0.050801 -0.008241 -0.015164
											}
										}
									}
								}
								JOINT LFinger2
								{
									OFFSET 0.271867 -0.006477 0.027054
									CHANNELS 6 Xposition Yposition Zposition Xrotation Yrotation Zrotation
									JOINT LFinger21
									{
										OFFSET 0.123886 0.000731 0.000344
										CHANNELS 3 Xrotation Yrotation Zrotation
										JOINT LFinger22
										{
											OFFSET 0.068670 0.000417 0.000210
											CHANNELS 3 Xrotation Yrotation Zrotation
											End Site
											{
												OFFSET 0.053519 -0.000073 -0.003780
											}
										}
									}
								}
								JOINT LFinger3
								{
									OFFSET 0.257651 0.060956 0.018054
									CHANNELS 6 Xposition Yposition Zposition Xrotation Yrotation Zrotation
									JOINT LFinger31
									{
										OFFSET 0.112414 0.007039 -0.005693
										CHANNELS 3 Xrotation Yrotation Zrotation
										JOINT LFinger32
										{
											OFFSET 0.064059 0.004024 -0.003223
											CHANNELS 3 Xrotation Yrotation Zrotation
											End Site
											{
												OFFSET 0.053193 0.002514 -0.006540
											}
										}
									}
								}
								JOINT LFinger4
								{
									OFFSET 0.239089 0.105269 -0.018169
									CHANNELS 6 Xposition Yposition Zposition Xrotation Yrotation Zrotation
									JOINT LFinger41
									{
										OFFSET 0.069146 0.019088 -0.014420
										CHANNELS 3 Xrotation Yrotation Zrotation
										JOINT LFinger42
										{
											OFFSET 0.050705 0.014006 -0.010559
											CHANNELS 3 Xrotation Yrotation Zrotation
											End Site
											{
												OFFSET 0.050514 0.011591 -0.013878
											}
										}
									}
								}
								JOINT LFinger0
								{
									OFFSET 0.055412 -0.042009 -0.041941
									CHANNELS 6 Xposition Yposition Zposition Xrotation Yrotation Zrotation
									JOINT LFinger01
									{
										OFFSET 0.103169 -0.077784 -0.033880
										CHANNELS 3 Xrotation Yrotation Zrotation
										JOINT LFinger02
										{
											OFFSET 0.067934 -0.048944 -0.024309
											CHANNELS 3 Xrotation Yrotation Zrotation
											End Site
											{
												OFFSET 0.042585 -0.029159 -0.014660
											}
										}
									}
								}
							}
						}
					}
				}
				JOINT RClavicle
				{
					OFFSET -0.060085 -0.196776 0.638168
					CHANNELS 6 Xposition Yposition Zposition Xrotation Yrotation Zrotation
					JOINT RShoulder
					{
						OFFSET -0.351089 0.148139 0.091551
						CHANNELS 3 Xrotation Yrotation Zrotation
						JOINT RForearm
						{
							OFFSET -0.828500 0.007179 -0.002937
							CHANNELS 3 Xrotation Yrotation Zrotation
							JOINT RHand
							{
								OFFSET -0.691144 0.004142 0.002004
								CHANNELS 3 Xrotation Yrotation Zrotation
								JOINT RFinger1
								{
									OFFSET -0.267870 -0.074399 0.023430
									CHANNELS 6 Xposition Yposition Zposition Xrotation Yrotation Zrotation
									JOINT RFinger11
									{
										OFFSET -0.100195 -0.017654 -0.024433
										CHANNELS 3 Xrotation Yrotation Zrotation
										JOINT RFinger12
										{
											OFFSET -0.068401 -0.012057 -0.016688
											CHANNELS 3 Xrotation Yrotation Zrotation
											End Site
											{
												OFFSET -0.050801 -0.008241 -0.015164
											}
										}
									}
								}
								JOINT RFinger2
								{
									OFFSET -0.271866 -0.006479 0.027053
									CHANNELS 6 Xposition Yposition Zposition Xrotation Yrotation Zrotation
									JOINT RFinger21
									{
										OFFSET -0.123886 0.000731 0.000347
										CHANNELS 3 Xrotation Yrotation Zrotation
										JOINT RFinger22
										{
											OFFSET -0.068670 0.000420 0.000210
											CHANNELS 3 Xrotation Yrotation Zrotation
											End Site
											{
												OFFSET -0.053519 -0.000073 -0.003781
											}
										}
									}
								}
								JOINT RFinger3
								{
									OFFSET -0.257650 0.060956 0.018057
									CHANNELS 6 Xposition Yposition Zposition Xrotation Yrotation Zrotation
									JOINT RFinger31
									{
										OFFSET -0.112414 0.007039 -0.005693
										CHANNELS 3 Xrotation Yrotation Zrotation
										JOINT RFinger32
										{
											OFFSET -0.064061 0.004023 -0.003223
											CHANNELS 3 Xrotation Yrotation Zrotation
											End Site
											{
												OFFSET -0.053193 0.002514 -0.006540
											}
										}
									}
								}
								JOINT RFinger4
								{
									OFFSET -0.239089 0.105269 -0.018170
									CHANNELS 6 Xposition Yposition Zposition Xrotation Yrotation Zrotation
									JOINT RFinger41
									{
										OFFSET -0.069146 0.019088 -0.014420
										CHANNELS 3 Xrotation Yrotation Zrotation
										JOINT RFinger42
										{
											OFFSET -0.050705 0.014006 -0.010556
											CHANNELS 3 Xrotation Yrotation Zrotation
											End Site
											{
												OFFSET -0.050514 0.011591 -0.013878
											}
										}
									}
								}
								JOINT RFinger0
								{
									OFFSET -0.055412 -0.042006 -0.041939
									CHANNELS 6 Xposition Yposition Zposition Xrotation Yrotation Zrotation
									JOINT RFinger01
									{
										OFFSET -0.103169 -0.077787 -0.033886
										CHANNELS 3 Xrotation Yrotation Zrotation
										JOINT RFinger02
										{
											OFFSET -0.067934 -0.048944 -0.024307
											CHANNELS 3 Xrotation Yrotation Zrotation
											End Site
											{
												OFFSET -0.042585 -0.029159 -0.014659
											}
										}
									}
								}
							}
						}
					}
				}
			}
		}
	}
	JOINT RThigh
	{
		OFFSET -0.307261 0.025206 0.117468
		CHANNELS 6 Xposition Yposition Zposition Xrotation Yrotation Zrotation
		JOINT RShin
		{
			OFFSET -0.022246 -0.000000 -1.209169
			CHANNELS 3 Xrotation Yrotation Zrotation
			JOINT RFoot
			{
				OFFSET 0.000000 -0.000000 -1.187332
				CHANNELS 3 Xrotation Yrotation Zrotation
				JOINT RToe
				{
					OFFSET 0.000000 -0.272888 -0.130497
					CHANNELS 3 Xrotation Yrotation Zrotation
					End Site
					{
						OFFSET 0.000000 -0.053652 0.000000
					}
				}
			}
		}
	}
	JOINT LThigh
	{
		OFFSET 0.307258 0.025205 0.117477
		CHANNELS 6 Xposition Yposition Zposition Xrotation Yrotation Zrotation
		JOINT LShin
		{
			OFFSET 0.022246 0.000001 -1.209178
			CHANNELS 3 Xrotation Yrotation Zrotation
			JOINT LFoot
			{
				OFFSET -0.000000 0.000000 -1.187332
				CHANNELS 3 Xrotation Yrotation Zrotation
				JOINT LToe
				{
					OFFSET -0.000000 -0.272891 -0.130500
					CHANNELS 3 Xrotation Yrotation Zrotation
					End Site
					{
						OFFSET 0.000000 -0.053652 0.000000
					}
				}
			}
		}
	}
}
MOTION
Frames: 4
Frame Time: 0.041667
1.819070 -0.960165 2.135310 20.735785 0.535653 -7.276324 0.000000 0.154692 0.259874 -0.000001 -0.000001 0.000002 0.991977 4.597607 6.127826 1.376645 15.546084 20.490042 0.000000 0.012376 0.661278 -26.205028 6.247950 3.365830 -1.332030 -2.380194 -0.077779 0.060085 -0.196776 0.638167 -0.000003 12.966260 0.000005 41.239535 45.080488 -53.104895 0.011471 0.000524 -6.436080 -0.000002 0.000004 0.000000 0.267868 -0.074399 0.023427 -0.000000 0.000006 -0.000006 0.000001 -0.000001 0.000002 -0.000000 -0.000011 0.000000 0.271867 -0.006476 0.027053 0.000002 0.000005 -0.000005 0.000002 0.000001 0.000003 -0.000001 -0.000003 -0.000002 0.257650 0.060956 0.018054 0.000000 0.000007 -0.000002 0.000001 -0.000003 0.000003 0.000002 0.000001 0.000001 0.239090 0.105269 -0.018169 -0.000006 0.000008 -0.000005 0.000005 -0.000004 -0.000007 0.000004 -0.000008 -0.000003 0.055412 -0.042009 -0.041941 0.000009 0.000008 -0.000017 -0.000001 -0.000003 -0.000007 -0.000002 -0.000001 0.000005 -0.060085 -0.196776 0.638168 0.000006 5.012690 0.000001 -12.939606 -32.953433 88.173630 0.099746 0.019226 35.561329 -19.875318 -19.053929 24.127315 -0.267871 -0.074399 0.023430 0.000016 0.000009 -0.000005 0.000007 0.000010 0.000009 -0.000001 -0.000012 0.000001 -0.271866 -0.006480 0.027054 -0.000001 0.000005 0.000004 -0.000006 0.000008 0.000009 -0.000002 -0.000007 -0.000001 -0.257651 0.060956 0.018058 -0.000004 0.000018 0.000004 -0.000013 0.000017 0.000001 -0.000009 0.000003 -0.000000 -0.239089 0.105269 -0.018169 -0.000001 0.000018 0.000005 0.000000 0.000007 0.000016 0.000004 -0.000009 -0.000009 -0.055412 -0.042006 -0.041938 0.000003 0.000012 0.000003 -0.000004 -0.000006 0.000008 -0.000004 -0.000009 0.000002 -0.307261 0.025206 0.117468 -31.819953 -27.713313 -7.905201 -0.356360 -0.000011 0.000007 0.033695 0.863085 -1.805986 0.000002 -0.000003 0.000004 0.307258 0.025206 0.117477 -58.633773 9.594178 14.901367 64.127997 -0.000007 0.000012 3.447030 1.080491 -2.444952 -20.891363 0.000007 -0.000004 
1.819070 -0.960165 2.135310 20.735785 0.535653 -7.276324 0.000000 0.154692 0.259874 -0.000001 -0.000001 0.000002 0.991977 4.597607 6.127826 1.376645 15.546084 20.490042 0.000000 0.012376 0.661278 -26.205028 6.247950 3.365830 -1.332030 -2.380194 -0.077779 0.060085 -0.196776 0.638167 -0.000003 12.966260 0.000005 41.239535 45.080488 -53.104895 0.011471 0.000524 -6.436080 -0.000002 0.000004 0.000000 0.267868 -0.074399 0.023427 -0.000000 0.000006 -0.000006 0.000001 -0.000001 0.000002 -0.000000 -0.000011 0.000000 0.271867 -0.006476 0.027053 0.000002 0.000005 -0.000005 0.000002 0.000001 0.000003 -0.000001 -0.000003 -0.000002 0.257650 0.060956 0.018054 0.000000 0.000007 -0.000002 0.000001 -0.000003 0.000003 0.000002 0.000001 0.000001 0.239090 0.105269 -0.018169 -0.000006 0.000008 -0.000005 0.000005 -0.000004 -0.000007 0.000004 -0.000008 -0.000003 0.055412 -0.042009 -0.041941 0.000009 0.000008 -0.000017 -0.000001 -0.000003 -0.000007 -0.000002 -0.000001 0.000005 -0.060085 -0.196776 0.638168 0.000006 5.012690 0.000001 -12.939606 -32.953433 88.173630 0.099746 0.019226 35.561329 -19.875318 -19.053929 24.127315 -0.267871 -0.074399 0.023430 0.000016 0.000009 -0.000005 0.000007 0.000010 0.000009 -0.000001 -0.000012 0.000001 -0.271866 -0.006480 0.027054 -0.000001 0.000005 0.000004 -0.000006 0.000008 0.000009 -0.000002 -0.000007 -0.000001 -0.257651 0.060956 0.018058 -0.000004 0.000018 0.000004 -0.000013 0.000017 0.000001 -0.000009 0.000003 -0.000000 -0.239089 0.105269 -0.018169 -0.000001 0.000018 0.000005 0.000000 0.000007 0.000016 0.000004 -0.000009 -0.000009 -0.055412 -0.042006 -0.041938 0.000003 0.000012 0.000003 -0.000004 -0.000006 0.000008 -0.000004 -0.000009 0.000002 -0.307261 0.025206 0.117468 -31.819953 -27.713313 -7.905201 -0.356360 -0.000011 0.000007 0.033695 0.863085 -1.805986 0.000002 -0.000003 0.000004 0.307258 0.025206 0.117477 -58.633773 9.594178 14.901367 64.127997 -0.000007 0.000012 3.447030 1.080491 -2.444952 -20.891363 0.000007 -0.000004 
1.820461 -0.959135 2.135027 20.663904 0.381330 -7.418589 0.000000 0.154692 0.259874 0.000002 -0.000001 0.000002 1.021280 4.618676 6.090781 1.481924 15.619972 20.378332 -0.000000 0.012376 0.661279 -26.290605 6.276067 3.387791 -1.560382 -2.494165 -0.085714 0.060085 -0.196776 0.638167 -0.000004 12.883594 -0.000000 40.612482 45.602933 -52.310786 0.012745 0.000724 -6.931917 0.000000 0.000004 -0.000000 0.267867 -0.074399 0.023428 0.000001 0.000005 -0.000005 -0.000000 -0.000000 0.000005 0.000000 -0.000013 -0.000000 0.271867 -0.006477 0.027054 0.000002 0.000006 -0.000004 0.000002 0.000001 0.000002 -0.000003 -0.000002 -0.000003 0.257650 0.060956 0.018055 0.000000 0.000006 -0.000002 -0.000000 -0.000004 0.000005 0.000002 0.000003 0.000003 0.239089 0.105269 -0.018169 -0.000006 0.000007 -0.000006 0.000002 -0.000005 -0.000009 0.000003 -0.000007 -0.000004 0.055413 -0.042009 -0.041941 0.000008 0.000006 -0.000012 -0.000004 -0.000003 -0.000000 -0.000003 -0.000002 0.000005 -0.060085 -0.196775 0.638168 0.000001 5.207601 0.000001 -13.090932 -32.778607 88.350280 0.096948 0.016137 34.970360 -22.322511 -24.168595 28.069779 -0.267871 -0.074399 0.023430 0.000012 0.000008 -0.000005 0.000009 0.000010 0.000007 -0.000000 -0.000015 0.000001 -0.271866 -0.006479 0.027053 -0.000002 0.000005 0.000004 -0.000002 0.000008 0.000009 -0.000002 -0.000005 -0.000001 -0.257650 0.060956 0.018058 0.000000 0.000017 0.000004 -0.000007 0.000016 0.000002 -0.000002 0.000004 0.000001 -0.239089 0.105269 -0.018169 0.000001 0.000018 0.000003 0.000003 0.000009 0.000017 -0.000001 -0.000009 -0.000008 -0.055412 -0.042006 -0.041939 -0.000000 0.000011 0.000004 -0.000013 -0.000009 0.000012 -0.000009 -0.000010 0.000006 -0.307261 0.025205 0.117468 -31.824747 -27.644752 -7.965220 -0.202622 -0.000011 0.000008 -0.296966 0.908472 -1.887152 0.000001 -0.000003 0.000004 0.307258 0.025206 0.117477 -58.618480 9.734048 14.885284 64.015682 -0.000009 0.000015 3.738463 1.177033 -2.682811 -20.973178 0.000008 -0.000005 
1.821623 -0.958969 2.134649 20.622750 0.299282 -7.528310 0.000000 0.154692 0.259874 0.000001 -0.000001 0.000002 1.020362 4.622131 6.081828 1.484688 15.645508 20.312479 -0.000000 0.012376 0.661278 -26.192471 6.260577 3.373517 -1.666087 -2.550470 -0.090164 0.060085 -0.196775 0.638167 -0.000008 12.816430 0.000005 41.081433 45.195806 -52.425103 0.013949 0.000426 -7.211382 -0.000001 0.000004 -0.000000 0.267867 -0.074399 0.023428 -0.000000 0.000004 -0.000006 0.000003 -0.000000 0.000002 -0.000002 -0.000010 0.000002 0.271867 -0.006477 0.027054 0.000001 0.000005 -0.000005 0.000002 0.000001 0.000002 -0.000002 -0.000002 -0.000002 0.257650 0.060956 0.018054 0.000000 0.000007 -0.000004 -0.000000 -0.000004 0.000006 0.000002 0.000003 0.000001 0.239090 0.105269 -0.018169 -0.000007 0.000006 -0.000008 0.000005 -0.000004 -0.000006 0.000006 -0.000007 -0.000005 0.055413 -0.042008 -0.041941 0.000010 0.000005 -0.000013 -0.000001 -0.000002 -0.000006 -0.000004 -0.000000 0.000006 -0.060085 -0.196776 0.638167 0.000009 5.308284 0.000012 -13.062192 -32.555352 88.513453 0.094630 0.017007 34.792301 -23.057388 -26.411915 29.510703 -0.267871 -0.074398 0.023431 0.000000 0.000009 -0.000007 0.000016 0.000010 0.000005 0.000003 -0.000011 0.000001 -0.271866 -0.006479 0.027054 -0.000004 0.000004 0.000004 -0.000003 0.000008 0.000009 -0.000006 -0.000006 -0.000001 -0.257651 0.060957 0.018058 -0.000008 0.000018 0.000004 -0.000008 0.000017 0.000001 0.000003 0.000003 0.000001 -0.239089 0.105269 -0.018169 -0.000007 0.000018 0.000003 0.000004 0.000009 0.000019 0.000003 -0.000007 -0.000012 -0.055412 -0.042005 -0.041937 -0.000009 0.000009 0.000006 -0.000002 -0.000006 0.000012 -0.000004 -0.000009 0.000002 -0.307261 0.025206 0.117468 -31.906023 -27.593064 -8.021187 0.109849 -0.000013 0.000007 -0.618795 0.931409 -1.921952 0.000001 -0.000005 0.000003 0.307257 0.025206 0.117477 -58.603201 9.853927 14.816183 63.979871 -0.000007 0.000014 3.895962 1.208783 -2.764829 -21.100276 0.000007 -0.000006 
